<?xml version="1.0" standalone="no"?>
<!DOCTYPE svg PUBLIC "-//W3C//DTD SVG 20010904//EN"
 "http://www.w3.org/TR/2001/REC-SVG-20010904/DTD/svg10.dtd">
<svg version="1.0" xmlns="http://www.w3.org/2000/svg"
 width="400.000000pt" height="400.000000pt" viewBox="0 0 400.000000 400.000000"
 preserveAspectRatio="xMidYMid meet">
<metadata>
Created by potrace 1.14, written by Peter Selinger 2001-2017
</metadata>
<g transform="translate(0.000000,400.000000) scale(0.100000,-0.100000)"
fill="#000000" stroke="none">
<path d="M1760 3448 c-351 -19 -801 -87 -897 -137 -97 -50 -170 -149 -192
-261 -12 -63 -36 -345 -51 -600 -5 -96 -12 -211 -15 -255 -9 -124 -6 -366 5
-468 58 -526 338 -953 820 -1250 105 -64 303 -157 437 -203 l112 -39 83 28
c473 163 846 454 1074 839 67 114 135 274 169 400 73 273 76 471 15 1228 -24
296 -31 344 -64 415 -51 113 -135 173 -288 206 -85 18 -305 55 -388 65 -19 2
-58 6 -86 9 -28 3 -70 8 -95 11 -92 11 -519 19 -639 12z m590 -188 c250 -22
610 -78 677 -106 40 -16 70 -63 78 -123 13 -104 45 -563 56 -813 18 -405 -6
-601 -102 -836 -76 -186 -179 -332 -355 -503 -104 -100 -299 -248 -321 -242
-3 0 -145 273 -313 605 -350 686 -329 622 -215 674 46 21 80 29 146 32 83 4
90 3 255 -53 145 -50 180 -58 244 -59 105 0 250 51 372 131 l38 26 0 96 c0 53
-5 170 -10 261 -6 91 -11 191 -13 222 -1 32 -4 57 -7 55 -212 -103 -270 -119
-430 -120 -133 0 -196 14 -401 93 -186 72 -242 84 -369 75 -58 -4 -119 -7
-137 -8 -18 0 -30 -4 -27 -9 5 -7 -1 -9 -38 -12 -7 -1 -15 -3 -18 -6 -3 -3
-18 -12 -35 -20 -16 -8 -33 -16 -37 -18 -5 -2 -8 20 -8 50 0 29 -3 63 -6 75
-5 19 -259 223 -278 223 -3 0 -6 -74 -6 -165 l0 -165 60 -47 c71 -55 61 -37
326 -558 103 -203 312 -614 465 -913 l276 -543 -24 -19 c-27 -21 -172 -79
-218 -87 -38 -6 -197 55 -344 133 -436 231 -700 558 -803 994 -40 171 -35 632
13 1199 21 248 26 284 40 275 5 -3 6 1 4 8 -3 7 14 32 37 55 39 39 52 44 138
62 129 26 341 58 480 70 63 6 131 13 150 14 84 8 555 6 660 -3z"/>
<path d="M870 3018 c0 -7 -9 -116 -20 -243 -45 -536 -52 -1020 -16 -1175 23
-103 66 -230 77 -230 6 0 7 -4 4 -10 -7 -11 45 -123 53 -115 3 3 27 -29 53
-70 27 -41 51 -75 54 -75 4 0 -3 13 -15 30 -12 16 -40 63 -64 105 -23 41 -46
72 -51 67 -5 -4 -5 -2 -1 5 3 6 -7 46 -24 88 -44 110 -77 247 -91 372 -17 160
0 673 35 1058 15 155 18 205 12 205 -3 0 -6 -6 -6 -12z"/>
<path d="M1653 3023 c15 -2 37 -2 50 0 12 2 0 4 -28 4 -27 0 -38 -2 -22 -4z"/>
<path d="M1548 3013 c12 -2 32 -2 45 0 12 2 2 4 -23 4 -25 0 -35 -2 -22 -4z"/>
<path d="M1690 3010 c-63 -5 -146 -8 -185 -6 -49 2 -60 1 -35 -4 28 -6 23 -7
-22 -5 l-57 3 27 -22 c15 -13 55 -41 89 -64 l61 -41 79 15 c122 24 220 13 378
-42 281 -98 389 -121 515 -109 80 8 190 37 264 69 l56 25 0 45 c0 25 -4 47 -9
50 -15 10 -310 55 -461 71 -179 19 -546 26 -700 15z"/>
<path d="M1106 2972 c-2 -4 5 -14 17 -22 19 -12 21 -11 10 2 -7 8 -10 18 -6
21 3 4 1 7 -5 7 -6 0 -13 -4 -16 -8z"/>
<path d="M2865 2940 c-3 -5 -1 -10 4 -10 6 0 11 5 11 10 0 6 -2 10 -4 10 -3 0
-8 -4 -11 -10z"/>
<path d="M1658 2693 c12 -2 32 -2 45 0 12 2 2 4 -23 4 -25 0 -35 -2 -22 -4z"/>
<path d="M1588 2683 c6 -2 18 -2 25 0 6 3 1 5 -13 5 -14 0 -19 -2 -12 -5z"/>
<path d="M1548 2673 c7 -3 16 -2 19 1 4 3 -2 6 -13 5 -11 0 -14 -3 -6 -6z"/>
<path d="M1066 2321 c-14 -104 -18 -428 -7 -528 40 -340 206 -625 489 -838 87
-65 249 -161 258 -152 3 3 -160 334 -361 737 -201 403 -365 736 -363 742 2 5
14 -13 28 -41 13 -28 27 -51 32 -51 5 0 7 -4 3 -9 -3 -5 2 -17 11 -25 8 -9 12
-16 8 -16 -4 0 0 -6 11 -13 11 -9 15 -19 10 -27 -5 -8 -4 -11 2 -7 6 4 16 -7
23 -23 7 -17 15 -29 17 -27 2 3 -32 76 -75 164 l-80 160 -6 -46z"/>
<path d="M1783 1858 c-8 -10 -4 -25 16 -60 15 -27 31 -45 35 -40 4 4 7 0 6 -8
-4 -29 0 -46 8 -33 5 8 16 -6 31 -38 13 -27 26 -48 28 -45 2 2 -22 57 -54 121
-46 90 -62 114 -70 103z"/>
<path d="M2920 1784 c-7 -14 -126 -97 -175 -122 -156 -78 -327 -85 -514 -23
-47 16 -88 27 -90 26 -5 -6 335 -669 346 -672 16 -6 119 95 176 170 115 153
191 319 226 491 22 107 32 132 25 64 l-4 -43 11 40 c9 38 9 92 -1 69z"/>
<path d="M2113 1704 c19 -19 32 -24 48 -19 14 5 19 4 15 -4 -5 -7 -1 -8 10 -4
11 4 15 3 11 -4 -5 -7 0 -9 14 -6 16 5 6 12 -46 34 -82 35 -84 35 -52 3z"/>
<path d="M2901 1654 c0 -11 3 -14 6 -6 3 7 2 16 -1 19 -3 4 -6 -2 -5 -13z"/>
<path d="M3020 1349 c0 -5 5 -7 10 -4 6 3 10 8 10 11 0 2 -4 4 -10 4 -5 0 -10
-5 -10 -11z"/>
<path d="M3005 1320 c-3 -5 -1 -10 4 -10 6 0 11 5 11 10 0 6 -2 10 -4 10 -3 0
-8 -4 -11 -10z"/>
<path d="M2974 1282 c-11 -10 -25 -17 -32 -14 -6 2 -15 -4 -18 -12 -7 -19
-344 -356 -355 -356 -9 0 -169 -157 -169 -166 0 -3 7 -4 15 0 8 3 15 1 15 -3
0 -5 -6 -11 -14 -14 -8 -3 -22 10 -35 34 -35 61 -35 46 -1 -22 24 -46 35 -59
48 -54 45 17 189 132 288 230 120 119 201 222 259 328 37 67 36 83 -1 49z"/>
<path d="M1080 1086 c0 -2 8 -10 18 -17 15 -13 16 -12 3 4 -13 16 -21 21 -21
13z"/>
<path d="M2170 555 c-14 -8 -20 -14 -14 -15 5 0 19 7 30 15 24 18 16 19 -16 0z"/>
</g>
</svg>
